<?xml version="1.0" standalone="no"?>
<!DOCTYPE svg PUBLIC "-//W3C//DTD SVG 20010904//EN"
 "http://www.w3.org/TR/2001/REC-SVG-20010904/DTD/svg10.dtd">
<svg version="1.0" xmlns="http://www.w3.org/2000/svg"
 width="6932.000000pt" height="6932.000000pt" viewBox="0 0 6932.000000 6932.000000"
 preserveAspectRatio="xMidYMid meet">
<metadata>
Created by potrace 1.14, written by Peter Selinger 2001-2017
</metadata>
<g transform="translate(0.000000,6932.000000) scale(0.100000,-0.100000)"
fill="#000000" stroke="none">
<path d="M33965 56074 c-384 -16 -602 -27 -790 -40 -4217 -284 -8343 -1858
-11650 -4443 -193 -151 -525 -421 -525 -428 0 -6 8 -1 125 77 921 613 1997
1196 3050 1652 1945 843 4013 1370 6115 1557 957 86 2043 102 3020 46 3141
-181 6181 -1120 8910 -2753 5248 -3139 8818 -8542 9569 -14482 76 -595 118
-1121 142 -1750 15 -386 6 -1327 -15 -1695 -95 -1622 -350 -3052 -785 -4407
-462 -1439 -1122 -2836 -1934 -4091 -59 -93 -107 -170 -105 -172 4 -5 89 98
303 365 1059 1323 1929 2772 2590 4315 1158 2701 1664 5636 1480 8585 -197
3155 -1191 6234 -2868 8885 -1531 2419 -3579 4443 -6077 6002 -2526 1577
-5455 2515 -8535 2733 -159 11 -378 25 -485 31 -186 10 -1367 20 -1535 13z"/>
<path d="M31560 53500 c-3056 -103 -5993 -915 -8675 -2398 -1836 -1016 -3534
-2370 -4910 -3917 -807 -906 -1514 -1873 -2117 -2896 -1500 -2542 -2375 -5413
-2583 -8474 -29 -437 -36 -649 -36 -1180 0 -692 19 -1163 72 -1795 344 -4120
1894 -8075 4444 -11346 198 -253 397 -496 402 -490 3 2 -40 71 -95 153 -136
204 -265 409 -421 666 -1625 2693 -2595 5765 -2805 8887 -35 513 -40 691 -41
1345 0 680 7 880 45 1425 272 3805 1643 7478 3934 10535 2320 3096 5486 5434
9151 6758 303 109 823 283 1080 361 1390 419 2837 677 4320 771 789 49 1696
46 2500 -10 2563 -179 5019 -888 7105 -2052 277 -155 768 -449 1034 -620 114
-74 210 -132 212 -130 2 2 -74 67 -169 144 -1639 1333 -3468 2385 -5387 3101
-1819 679 -3683 1058 -5655 1152 -307 14 -1100 20 -1405 10z"/>
<path d="M33925 50700 c-1510 -73 -2928 -336 -4345 -809 -1639 -547 -3130
-1322 -4485 -2331 -322 -239 -789 -617 -650 -525 738 486 1408 858 2158 1196
1532 692 3221 1130 4877 1264 867 70 1835 66 2660 -10 3193 -296 6197 -1632
8605 -3829 1370 -1249 2504 -2747 3329 -4396 1422 -2845 1869 -6022 1286
-9130 -283 -1504 -923 -3095 -1786 -4436 -95 -148 -129 -211 -86 -158 403 492
675 858 967 1299 1558 2357 2364 5112 2322 7940 -8 498 -23 770 -68 1220 -285
2868 -1448 5595 -3313 7770 -461 537 -1062 1134 -1601 1590 -539 456 -1140
894 -1755 1277 -629 392 -1356 762 -2053 1045 -1438 583 -2889 905 -4567 1014
-213 14 -1261 20 -1495 9z"/>
<path d="M32215 48774 c-33 -2 -145 -8 -250 -14 -2313 -128 -4629 -851 -6625
-2068 -945 -576 -1779 -1227 -2559 -1997 -725 -716 -1265 -1368 -1810 -2185
-553 -830 -990 -1665 -1356 -2590 -777 -1965 -1117 -4137 -980 -6270 213
-3325 1421 -6441 3502 -9037 187 -234 202 -247 93 -83 -437 657 -876 1463
-1206 2217 -1681 3841 -1670 8168 32 12021 119 270 407 853 549 1112 1389
2531 3434 4567 5960 5935 1167 631 2488 1134 3745 1424 2776 641 5681 442
8192 -559 419 -168 967 -428 1348 -641 210 -117 628 -367 790 -473 160 -105
155 -102 146 -87 -4 6 -98 84 -209 173 -2117 1698 -4601 2743 -7232 3042 -212
24 -438 44 -745 67 -136 10 -1255 20 -1385 13z"/>
<path d="M51256 48173 c1918 -2948 3016 -6176 3249 -9543 33 -482 40 -701 40
-1320 0 -643 -7 -856 -46 -1390 -222 -3108 -1192 -6165 -2819 -8880 -1550
-2588 -3624 -4773 -6090 -6419 -1844 -1230 -3881 -2131 -6021 -2661 -1266
-314 -2533 -492 -3899 -550 -304 -13 -1225 -13 -1540 0 -1065 44 -2073 160
-3140 361 -770 145 -1817 463 -2729 828 -1072 430 -2022 924 -3043 1584 -32
21 -58 35 -58 33 0 -8 473 -383 690 -548 2155 -1631 4563 -2773 7100 -3367
2189 -513 4448 -621 6709 -320 3906 519 7624 2280 10511 4980 1210 1131 2272
2430 3134 3834 902 1467 1609 3090 2065 4740 565 2045 798 4215 681 6330 -235
4217 -1737 8325 -4268 11675 -167 220 -576 735 -593 745 -5 4 25 -46 67 -112z"/>
<path d="M47031 44880 c373 -572 683 -1107 959 -1660 856 -1712 1363 -3505
1519 -5380 38 -448 46 -657 45 -1200 0 -540 -7 -726 -45 -1190 -347 -4267
-2566 -8269 -6014 -10850 -1463 -1094 -3096 -1893 -4845 -2369 -954 -260
-1873 -409 -2975 -482 -262 -17 -1097 -23 -1410 -10 -957 40 -2029 178 -2730
351 -1342 331 -2676 906 -3843 1657 -90 58 -165 103 -167 101 -7 -6 389 -320
630 -499 1816 -1352 3868 -2241 6030 -2614 800 -138 1516 -198 2355 -198 708
0 1293 40 1955 134 3681 523 7018 2448 9279 5353 1075 1381 1890 2989 2375
4684 502 1750 670 3581 500 5437 -283 3104 -1502 6121 -3452 8547 -144 180
-208 252 -166 188z"/>
<path d="M20072 43993 c-3129 -3860 -4601 -8578 -4192 -13438 299 -3547 1613
-6990 3757 -9843 1534 -2041 3442 -3728 5631 -4980 2432 -1392 5165 -2218
8067 -2441 562 -43 644 -46 1420 -46 794 1 981 7 1600 55 1883 147 3749 547
5535 1187 2007 719 3883 1728 5595 3008 354 265 841 652 831 662 -2 3 -37 -17
-78 -45 -257 -172 -766 -485 -1124 -690 -2705 -1547 -5595 -2421 -8639 -2612
-511 -32 -1420 -42 -1920 -21 -3187 135 -6232 1004 -9039 2579 -1135 636
-2280 1436 -3266 2282 -3875 3324 -6262 7855 -6754 12825 -98 986 -121 2056
-65 3055 64 1157 254 2519 473 3381 457 1801 1241 3596 2233 5113 57 87 102
160 100 163 -3 2 -77 -85 -165 -194z"/>
<path d="M23679 41592 c-1924 -2405 -2992 -5209 -3130 -8216 -24 -518 -3
-1364 46 -1896 356 -3819 2246 -7367 5195 -9751 1769 -1430 3843 -2395 6115
-2843 1521 -300 3001 -358 4575 -180 2998 338 5852 1526 8214 3419 177 141
251 206 186 164 -1224 -799 -2410 -1376 -3707 -1803 -1079 -355 -2200 -582
-3333 -675 -461 -38 -648 -45 -1195 -45 -654 0 -1017 19 -1610 85 -3963 440
-7640 2469 -10145 5599 -1151 1438 -2024 3095 -2549 4836 -295 980 -485 1992
-566 3004 -31 394 -36 525 -42 1000 -13 1062 66 1980 262 3045 50 274 89 444
166 724 352 1286 904 2520 1622 3624 38 59 68 110 65 112 -2 2 -78 -89 -169
-203z"/>
<path d="M35833 41113 c-283 -676 -1853 -4457 -1853 -4463 0 -7 162 -9 447 -8
l447 3 116 317 115 318 787 0 786 0 50 -127 c27 -71 82 -215 123 -320 l74
-193 437 0 438 0 -9 23 c-5 12 -426 1021 -936 2242 -510 1221 -929 2226 -932
2233 -3 6 -21 12 -40 12 -30 0 -36 -4 -50 -37z m101 -1859 c31 -98 156 -440
279 -759 l223 -580 -273 -3 c-150 -1 -396 -1 -547 0 l-274 3 219 594 c120 327
240 670 266 762 26 92 49 167 50 165 1 -1 27 -83 57 -182z"/>
<path d="M24530 41060 c0 -6 331 -1003 736 -2216 l737 -2205 60 3 60 3 502
1247 c275 686 504 1250 507 1253 2 3 236 -562 519 -1255 l514 -1259 56 -1 55
0 728 2203 c401 1211 731 2210 734 2220 4 16 -21 17 -435 17 l-439 0 -360
-1266 c-239 -844 -362 -1260 -368 -1251 -5 7 -214 576 -466 1263 l-457 1249
-59 3 -60 3 -453 -1263 c-250 -695 -457 -1268 -460 -1275 -3 -6 -166 521 -361
1170 -195 650 -367 1224 -383 1275 l-28 92 -439 0 c-297 0 -440 -3 -440 -10z"/>
<path d="M30180 38855 l0 -2215 1225 0 1225 0 0 365 0 365 -820 0 -820 0 0
645 0 645 600 0 600 0 0 345 0 345 -600 0 -600 0 0 510 0 510 755 0 755 0 0
350 0 350 -1160 0 -1160 0 0 -2215z"/>
<path d="M38210 38855 l0 -2215 410 0 410 0 2 788 3 789 560 -789 560 -788
492 0 c271 0 493 4 493 8 0 4 -254 350 -565 767 l-565 760 86 27 c360 117 636
375 791 741 46 110 98 299 119 438 21 147 22 422 0 574 -88 604 -446 964
-1071 1075 -199 35 -317 40 -1027 40 l-698 0 0 -2215z m1276 1565 c435 -39
650 -232 704 -637 18 -130 8 -375 -18 -475 -48 -179 -121 -315 -227 -422 -85
-86 -164 -140 -263 -179 -122 -47 -201 -57 -438 -57 l-214 0 0 890 0 890 173
0 c94 0 222 -5 283 -10z"/>
<path d="M41850 38855 l0 -2215 1225 0 1225 0 0 365 0 365 -820 0 -820 0 0
645 0 645 600 0 600 0 0 345 0 345 -600 0 -600 0 0 510 0 510 755 0 755 0 0
350 0 350 -1160 0 -1160 0 0 -2215z"/>
<path d="M27435 35264 c-612 -67 -1114 -302 -1525 -713 -417 -418 -698 -992
-839 -1711 -134 -687 -132 -1537 5 -2220 144 -720 418 -1274 834 -1690 403
-404 876 -630 1500 -717 178 -25 662 -25 845 1 606 83 1078 309 1481 711 641
639 969 1664 941 2945 -4 151 -11 329 -17 395 -121 1368 -655 2303 -1565 2746
-297 145 -593 223 -970 259 -152 14 -534 11 -690 -6z m592 -1030 c670 -99
1110 -648 1268 -1579 51 -303 59 -419 59 -875 1 -458 -8 -581 -59 -878 -94
-543 -299 -997 -575 -1273 -190 -190 -389 -301 -642 -355 -126 -28 -388 -25
-528 5 -267 57 -517 203 -691 404 -373 431 -559 1123 -559 2082 0 1368 382
2205 1110 2429 176 55 416 70 617 40z"/>
<path d="M32370 31795 l0 -3485 610 0 610 0 0 1518 c0 1483 -1 1528 -25 1986
-14 258 -24 471 -22 472 1 1 65 -79 142 -179 86 -111 775 -906 1784 -2057
l1644 -1875 53 -3 54 -3 0 3501 0 3500 -605 0 -605 0 0 -1638 c0 -1522 1
-1665 21 -2017 11 -208 19 -390 17 -404 -3 -22 -28 7 -168 189 -100 129 -810
967 -1778 2098 l-1613 1882 -60 0 -59 0 0 -3485z"/>
<path d="M39330 31740 l0 -3430 1890 0 1890 0 0 560 0 560 -1275 0 -1275 0 0
1005 0 1005 935 0 935 0 0 525 0 525 -935 0 -935 0 0 795 0 795 1175 0 1175 0
0 545 0 545 -1790 0 -1790 0 0 -3430z"/>
<path d="M43563 34923 c3 -98 29 -1125 57 -2283 28 -1158 54 -2120 56 -2137
l5 -33 494 0 c272 0 495 3 495 8 0 4 27 999 60 2212 33 1213 60 2251 60 2307
l0 103 -617 0 -616 0 6 -177z"/>
<path d="M43660 28880 l0 -670 515 0 515 0 0 670 0 670 -515 0 -515 0 0 -670z"/>
</g>
</svg>
