<?xml version="1.0" standalone="no"?>
<!DOCTYPE svg PUBLIC "-//W3C//DTD SVG 20010904//EN"
 "http://www.w3.org/TR/2001/REC-SVG-20010904/DTD/svg10.dtd">
<svg version="1.0" xmlns="http://www.w3.org/2000/svg"
 width="274.000000pt" height="274.000000pt" viewBox="0 0 274.000000 274.000000"
 preserveAspectRatio="xMidYMid meet">
<metadata>
Created by potrace 1.14, written by Peter Selinger 2001-2017
</metadata>
<g transform="translate(0.000000,274.000000) scale(0.100000,-0.100000)"
fill="#000000" stroke="none">
<path d="M1333 2624 c-7 -3 -13 -9 -13 -14 0 -5 -5 -21 -12 -37 -13 -33 -16
-45 -24 -98 -3 -22 -7 -41 -8 -41 0 -1 -18 -4 -38 -7 -37 -5 -37 -4 -66 57
-38 80 -62 106 -98 106 -34 -1 -67 -19 -73 -40 -8 -33 -8 -146 1 -157 6 -8 2
-17 -15 -28 -40 -26 -63 -26 -77 1 -15 27 -76 86 -107 103 -34 17 -99 -24 -95
-60 12 -87 24 -139 33 -139 5 0 9 -11 9 -25 0 -14 -5 -25 -11 -25 -6 0 -18 -7
-26 -16 -9 -8 -19 -11 -22 -7 -8 12 -104 78 -111 76 -3 0 -15 3 -28 8 -44 17
-97 -34 -85 -80 7 -30 37 -85 64 -120 26 -32 24 -42 -11 -76 -17 -16 -30 -24
-30 -18 0 16 -64 37 -141 47 -28 3 -38 -1 -49 -18 -8 -11 -15 -23 -16 -26 0
-3 -4 -13 -8 -23 -10 -21 24 -68 87 -122 31 -26 43 -43 40 -56 -3 -11 -9 -19
-14 -19 -5 0 -9 -6 -9 -13 0 -11 -17 -13 -75 -9 -99 6 -123 -1 -139 -40 -8
-17 -13 -39 -12 -47 3 -19 94 -91 116 -91 30 -1 53 -29 54 -65 1 -31 -2 -35
-24 -36 -70 -2 -168 -37 -177 -63 -27 -83 19 -116 188 -135 3 -1 6 -7 7 -13 1
-7 3 -24 4 -38 3 -21 -6 -29 -52 -53 -73 -39 -119 -74 -115 -89 16 -72 19 -79
40 -84 35 -9 107 -10 146 -3 34 5 38 4 53 -27 17 -37 16 -39 -42 -82 -17 -13
-42 -41 -57 -62 -26 -37 -26 -38 -9 -74 10 -20 25 -37 33 -37 48 -5 96 2 138
21 l46 20 24 -22 c27 -25 29 -45 6 -70 -17 -19 -36 -50 -51 -83 -23 -50 -22
-61 6 -93 38 -42 62 -38 158 25 48 31 84 36 84 12 0 -5 7 -9 15 -9 19 0 19
-17 0 -54 -9 -16 -17 -43 -20 -60 -2 -17 -4 -31 -5 -31 -1 0 -3 -15 -4 -33 -2
-25 3 -36 23 -49 51 -33 70 -27 141 46 l66 68 31 -16 c22 -12 29 -22 26 -36
-5 -20 -6 -78 -4 -126 0 -14 7 -33 14 -43 14 -19 87 -40 87 -24 0 5 5 6 10 3
6 -3 10 1 10 9 0 9 5 16 10 16 6 0 10 7 10 15 0 8 5 15 10 15 6 0 10 6 10 14
0 7 7 19 15 26 8 6 14 15 14 18 -1 4 2 17 6 28 6 18 13 21 38 17 40 -6 56 -19
52 -41 -3 -22 23 -111 41 -139 11 -17 24 -23 52 -23 46 0 55 6 72 50 16 40 19
52 24 96 3 40 11 51 41 56 31 6 48 -7 65 -52 7 -19 28 -53 46 -76 29 -36 37
-40 65 -36 54 8 64 25 73 125 1 15 0 27 -4 27 -3 0 -5 16 -5 36 0 31 4 38 34
50 32 13 36 13 45 -3 5 -9 34 -41 64 -70 59 -57 72 -59 122 -24 15 11 25 27
24 42 -1 31 -15 101 -23 114 -3 6 -6 12 -7 15 0 3 -4 13 -8 22 -6 12 0 25 19
42 23 21 30 23 46 13 10 -6 19 -15 19 -18 0 -8 123 -69 138 -69 14 0 65 55 68
73 1 10 -2 17 -7 17 -4 0 -6 7 -3 15 4 8 1 15 -6 15 -6 0 -8 5 -5 10 3 6 1 10
-6 10 -7 0 -10 3 -6 6 3 4 1 12 -6 20 -56 62 -60 76 -31 109 24 28 24 28 61
12 64 -26 77 -30 118 -31 36 -1 41 2 61 38 l23 40 -21 30 c-12 17 -43 51 -69
76 l-48 45 14 33 c8 18 19 31 25 27 15 -9 131 -9 160 0 33 11 44 25 48 62 4
40 -28 73 -107 109 -55 25 -58 29 -57 61 1 28 6 35 26 39 95 21 145 36 148 44
2 6 10 10 18 10 10 0 13 11 10 45 -4 52 -1 47 -45 70 -33 16 -66 24 -125 29
-26 2 -29 6 -32 42 -3 38 -1 41 34 53 20 7 58 27 84 45 44 29 47 34 44 66 -9
76 -18 80 -138 76 l-80 -3 -13 30 c-13 30 -12 31 55 97 38 37 67 74 66 81 -5
24 -19 53 -33 67 -14 14 -103 14 -103 0 0 -5 -4 -6 -10 -3 -5 3 -27 -3 -49
-13 l-40 -19 -20 23 c-27 31 -27 37 8 87 36 53 58 106 53 132 -1 11 -17 30
-33 42 l-31 21 -47 -21 c-25 -12 -59 -31 -76 -43 -16 -11 -35 -23 -41 -27 -14
-8 -68 39 -59 52 3 6 8 21 10 33 3 12 8 24 12 27 9 7 15 41 17 91 1 28 -5 38
-33 57 -32 21 -36 22 -58 8 -12 -9 -23 -13 -23 -10 0 6 -62 -59 -87 -93 -17
-22 -19 -23 -56 -7 -33 14 -37 18 -31 43 7 31 7 94 1 136 -5 34 -44 59 -84 54
-19 -2 -37 -19 -64 -58 -21 -30 -37 -57 -37 -60 0 -3 -3 -15 -7 -27 -6 -19
-12 -22 -44 -17 -48 8 -48 8 -46 44 1 16 -1 30 -4 30 -3 0 -7 11 -7 25 -1 13
-11 42 -21 62 -17 33 -25 38 -59 40 -21 1 -45 0 -51 -3z m-19 -266 c12 11 150
9 158 -3 5 -6 8 -5 8 3 0 7 4 10 10 7 5 -3 18 -8 27 -9 10 -2 35 -6 55 -10 21
-4 39 -6 40 -6 8 3 161 -56 213 -83 79 -39 172 -103 184 -125 8 -15 1 -28 -35
-68 -25 -27 -49 -55 -54 -63 -12 -22 -64 -17 -91 8 -38 35 -177 99 -264 121
-81 21 -240 30 -300 16 -16 -3 -46 -9 -65 -12 -19 -3 -39 -9 -45 -12 -5 -4
-19 -8 -30 -9 -24 -4 -166 -73 -180 -89 -15 -16 -63 -44 -75 -44 -10 0 -20 9
-83 78 -52 57 -53 74 -9 106 57 41 112 76 120 76 4 0 24 11 45 25 20 14 37 23
37 19 0 -3 11 1 25 10 14 9 25 14 25 11 0 -3 16 1 35 9 19 8 35 13 35 10 0 -3
6 -2 13 3 6 4 14 8 17 8 3 1 19 4 35 8 17 3 48 9 69 12 22 3 42 8 44 10 3 3
10 0 17 -5 7 -5 15 -6 19 -2z m301 -318 c0 1 18 -5 40 -14 22 -10 40 -16 40
-14 0 9 140 -96 184 -138 47 -45 53 -55 42 -68 -12 -14 -131 -75 -290 -149
-25 -11 -49 -26 -53 -31 -4 -6 -8 -7 -8 -3 0 4 -9 3 -19 -2 -14 -8 -22 -7 -31
4 -14 17 -17 34 -25 156 -3 46 -8 113 -10 149 -10 140 -10 144 10 136 8 -3 15
-1 15 4 0 5 24 0 53 -11 28 -11 52 -20 52 -19z m-341 -35 c-4 -132 -9 -225
-14 -225 -3 0 -6 -32 -7 -72 -3 -96 -13 -105 -84 -77 -30 13 -61 28 -69 34 -8
7 -32 18 -52 26 -21 7 -38 17 -38 21 0 4 -3 7 -7 6 -5 -1 -39 13 -78 32 -38
19 -74 35 -80 35 -5 0 -11 9 -13 21 -2 14 15 37 58 77 33 31 65 57 70 57 6 0
10 3 10 8 0 24 227 120 280 118 24 -1 25 -4 24 -61z m-542 -8 c75 -75 81 -93
47 -128 -54 -55 -135 -190 -122 -203 4 -3 1 -6 -5 -6 -6 0 -14 -15 -18 -32 -4
-18 -9 -37 -10 -43 -16 -57 -24 -101 -20 -112 3 -7 2 -13 -2 -13 -13 0 0 -248
14 -272 3 -4 -2 -8 -10 -8 -9 0 -16 -4 -16 -9 0 -5 -17 -12 -37 -17 -44 -9
-52 -11 -55 -14 -3 -2 -18 -5 -55 -14 -30 -7 -40 12 -48 94 -2 19 -5 35 -6 35
-4 0 -5 211 -1 219 3 5 6 25 8 45 2 20 6 50 9 66 3 17 7 36 7 43 1 6 5 12 9
12 5 0 6 7 3 15 -4 8 -1 15 6 15 6 0 9 4 5 9 -3 5 -1 12 5 16 6 4 8 10 5 14
-6 11 52 131 98 202 40 62 109 139 125 139 6 0 35 -24 64 -53z m1415 6 c49
-60 103 -139 103 -151 0 -5 7 -15 15 -22 8 -7 13 -16 10 -20 -3 -4 2 -13 10
-20 7 -6 11 -18 8 -26 -3 -8 -1 -14 4 -14 7 0 33 -69 38 -100 1 -3 4 -14 8
-25 7 -24 15 -63 24 -125 12 -78 5 -300 -8 -300 -3 0 -5 -11 -4 -24 2 -14 -5
-32 -14 -40 -16 -14 -22 -15 -58 -2 -23 8 -52 16 -64 18 -13 2 -26 5 -29 8 -3
3 -14 10 -25 16 -11 7 -19 20 -18 30 16 116 17 140 11 249 -2 33 -6 65 -10 70
-3 6 -4 18 -3 28 2 9 0 17 -5 17 -4 0 -10 12 -13 28 -9 44 -12 55 -37 107 -20
44 -92 152 -110 165 -4 3 -12 14 -18 26 -10 19 -4 29 54 88 36 36 71 66 79 66
7 0 31 -21 52 -47z m-1327 -433 c11 -11 69 -50 75 -50 3 0 11 -5 18 -10 45
-38 61 -50 67 -50 6 0 23 -13 68 -50 6 -6 12 -7 12 -3 0 4 7 -3 16 -15 9 -14
12 -27 7 -37 -5 -8 -88 -69 -186 -135 -197 -133 -185 -132 -208 -34 -26 117
-29 241 -6 334 2 8 7 32 12 53 11 53 30 60 79 29 23 -15 43 -29 46 -32z m1231
33 c9 -24 15 -47 23 -88 1 -5 4 -14 7 -20 7 -13 3 -220 -4 -260 -11 -54 -15
-70 -26 -97 -6 -16 -13 -28 -17 -28 -9 0 -174 109 -191 126 -8 8 -19 14 -24
14 -5 0 -19 9 -31 20 -12 11 -34 25 -49 32 -15 7 -26 15 -23 19 2 4 -5 9 -15
12 -11 2 -24 14 -30 26 -10 18 -5 25 51 65 35 25 68 50 75 56 7 5 15 10 18 10
8 0 110 74 113 82 2 5 9 8 16 8 7 0 21 8 32 18 19 18 40 30 57 31 4 1 12 -11
18 -26z m-585 -3 c44 -17 92 -57 118 -98 27 -43 46 -115 40 -146 -3 -11 -7
-34 -9 -49 -9 -59 -72 -136 -135 -163 -47 -21 -136 -24 -185 -7 -47 16 -118
70 -110 84 4 5 1 9 -5 9 -14 0 -53 87 -45 100 3 6 2 10 -3 10 -5 0 -6 16 -2
38 14 79 21 102 31 102 5 0 8 6 6 13 -1 6 4 11 11 9 8 -1 11 2 7 8 -7 12 19
42 29 33 3 -4 6 1 6 9 0 17 59 50 100 56 13 2 26 5 28 7 7 6 89 -4 118 -15z
m199 -530 c69 -33 129 -60 134 -60 5 0 11 -3 13 -7 2 -5 29 -20 61 -35 31 -15
57 -33 57 -38 0 -16 -87 -100 -140 -137 -45 -30 -126 -75 -145 -79 -5 -2 -26
-8 -45 -15 -19 -7 -42 -14 -50 -17 -8 -3 -27 -7 -42 -9 -34 -3 -34 -4 -24 122
3 33 7 98 10 145 10 141 15 173 28 182 7 4 14 8 15 8 2 0 59 -27 128 -60z
m-413 38 c0 -7 2 -22 3 -33 1 -11 3 -22 4 -25 2 -5 9 -100 16 -215 2 -33 4
-62 5 -65 1 -3 3 -23 4 -45 2 -53 -8 -65 -45 -55 -16 5 -29 7 -29 4 0 -2 -25
7 -55 21 -31 13 -58 24 -61 24 -32 -4 -268 181 -265 207 1 13 372 193 399 194
12 0 23 -6 24 -12z m-573 -93 c41 -82 79 -135 133 -187 21 -21 38 -43 38 -50
0 -6 3 -9 6 -5 4 3 13 -1 21 -9 19 -18 100 -74 108 -74 4 0 20 -9 36 -21 16
-11 29 -18 29 -14 0 3 11 -2 25 -11 14 -9 25 -13 25 -9 0 4 7 2 15 -5 8 -7 15
-9 15 -5 0 4 6 3 13 -3 43 -36 264 -47 393 -20 49 11 95 20 102 20 6 1 12 5
12 10 0 4 6 8 14 8 20 0 156 71 156 82 0 4 5 8 11 8 6 0 21 9 33 20 11 11 35
32 52 47 54 49 118 136 154 210 19 40 43 75 52 78 20 7 156 -34 176 -53 11
-10 7 -26 -24 -95 -22 -45 -43 -87 -49 -94 -5 -7 -16 -19 -22 -27 -7 -8 -13
-20 -13 -25 0 -6 -42 -52 -92 -103 -92 -92 -104 -103 -164 -145 -35 -25 -204
-115 -204 -109 0 3 -25 -4 -55 -15 -30 -10 -64 -19 -75 -19 -11 0 -20 -4 -20
-8 0 -4 -12 -7 -27 -6 -16 1 -32 -2 -38 -6 -13 -9 -257 -5 -310 5 -50 9 -56
11 -75 17 -8 3 -35 12 -60 19 -56 16 -169 68 -192 87 -10 8 -18 11 -18 6 0 -5
-4 -4 -8 2 -4 6 -29 26 -57 44 -61 42 -184 163 -210 208 -11 17 -23 32 -27 32
-4 0 -8 6 -8 14 0 8 -4 16 -9 18 -5 2 -11 10 -13 18 -2 8 -6 17 -9 20 -14 11
-68 128 -62 134 4 3 0 6 -7 6 -29 0 14 29 80 54 98 37 108 33 149 -49z"/>
<path d="M1325 2341 c-11 -4 -39 -6 -61 -6 -32 0 -41 -3 -39 -15 1 -8 12 -15
26 -15 18 0 24 -6 25 -23 1 -12 2 -23 4 -24 1 -2 3 -19 3 -38 2 -28 6 -36 25
-38 21 -3 22 -1 12 17 -8 16 -8 21 2 21 8 0 9 3 3 8 -6 4 -11 23 -10 42 0 28
4 36 22 38 12 2 24 10 27 18 3 8 2 13 -3 9 -5 -3 -11 -1 -13 4 -1 5 -12 6 -23
2z"/>
<path d="M1430 2308 c-10 -17 -17 -35 -14 -40 3 -4 0 -8 -6 -8 -6 0 -9 -4 -6
-9 3 -5 -1 -14 -9 -21 -19 -16 -20 -50 -1 -50 8 0 17 7 20 16 7 19 65 12 82
-10 19 -26 35 -19 28 12 -4 15 -11 35 -16 44 -4 9 -7 21 -7 25 1 4 -1 16 -4
26 -4 9 -9 24 -12 32 -8 25 -34 17 -55 -17z m42 -52 c4 -19 1 -22 -14 -18 -20
5 -20 5 -12 26 9 23 21 20 26 -8z"/>
<path d="M1604 2302 c-4 -9 -6 -20 -6 -24 1 -5 -3 -8 -9 -8 -6 0 -9 -7 -5 -15
3 -8 1 -15 -4 -15 -5 0 -7 -9 -5 -20 2 -11 0 -22 -6 -25 -14 -9 -11 -32 7 -39
10 -4 19 3 27 24 15 34 33 28 41 -14 7 -37 17 -48 36 -36 8 5 10 10 5 10 -15
0 -13 52 3 58 6 2 10 8 6 13 -3 5 0 9 5 9 12 0 14 39 3 56 -4 6 -26 18 -49 27
-38 15 -42 15 -49 -1z m64 -55 c2 -11 -3 -17 -16 -17 -24 0 -32 8 -25 26 7 20
37 13 41 -9z"/>
<path d="M1075 2284 c-20 -17 -25 -30 -23 -58 3 -57 39 -85 97 -76 21 3 51 35
56 61 15 75 -71 124 -130 73z m78 -16 c21 -16 28 -59 11 -75 -15 -15 -43 -17
-64 -3 -19 12 -22 70 -4 70 8 0 14 5 14 10 0 14 23 13 43 -2z"/>
<path d="M1756 2248 c15 -24 15 -88 -1 -117 -19 -38 -19 -39 3 -43 11 -2 23 7
33 26 14 27 90 79 103 70 3 -2 0 3 -8 12 -13 15 -17 15 -45 1 -26 -13 -31 -13
-31 -1 0 8 -4 14 -10 14 -5 0 -9 3 -9 8 4 27 -3 42 -22 42 -13 0 -18 -4 -13
-12z"/>
<path d="M911 2219 c-23 -10 -41 -23 -41 -28 0 -14 49 -102 66 -121 21 -21 43
3 27 29 -7 10 -9 22 -6 25 12 12 41 6 47 -9 3 -8 11 -14 18 -13 24 5 26 21 7
37 -11 9 -21 23 -23 31 -11 65 -34 77 -95 49z m54 -29 c3 -6 0 -17 -9 -25 -13
-13 -16 -13 -32 2 -15 16 -15 17 2 24 27 11 32 10 39 -1z"/>
<path d="M1304 1581 c-80 -27 -143 -103 -149 -181 -1 -21 -5 -42 -8 -47 -4 -6
-3 -13 1 -17 4 -4 7 -11 8 -14 3 -27 18 -62 26 -62 5 0 7 -4 4 -8 -8 -14 66
-78 109 -94 78 -30 187 -9 240 46 42 42 54 69 69 152 11 54 -55 193 -91 194
-7 0 -13 3 -13 8 0 12 -52 31 -100 36 -28 3 -64 -2 -96 -13z m106 -41 c0 -21
4 -26 39 -45 46 -26 81 -88 78 -136 -4 -53 -44 -110 -85 -123 -12 -4 -22 -11
-22 -15 0 -9 -69 2 -105 15 -24 9 -52 39 -69 74 -29 57 0 147 59 181 18 11 35
29 38 39 4 15 14 20 36 20 17 0 31 -4 31 -10z"/>
<path d="M660 970 c0 -6 -3 -9 -8 -6 -4 2 -26 -9 -50 -25 -23 -16 -47 -29 -51
-29 -14 0 -21 -29 -10 -36 12 -7 83 27 122 59 23 19 24 24 12 35 -10 8 -15 9
-15 2z"/>
<path d="M2066 945 c-3 -9 4 -20 17 -26 12 -7 45 -24 72 -39 42 -23 52 -25 63
-14 7 8 10 14 6 14 -3 0 3 16 15 35 12 21 16 37 10 41 -11 6 -43 -16 -34 -24
2 -3 -3 -11 -13 -18 -14 -11 -23 -9 -57 10 -58 33 -73 37 -79 21z"/>
<path d="M625 869 c-27 -21 -51 -43 -53 -48 -6 -19 27 -19 47 0 32 30 41 19
24 -29 -14 -42 -12 -72 4 -72 4 0 20 10 34 23 15 12 43 35 62 52 29 23 34 32
25 43 -10 12 -14 11 -25 -4 -7 -10 -13 -14 -13 -8 0 5 -7 1 -14 -9 -17 -23
-31 -5 -17 21 6 11 12 31 15 45 7 40 -28 34 -89 -14z"/>
<path d="M2004 857 c-8 -8 -5 -21 10 -47 11 -19 23 -37 27 -40 3 -3 14 -20 23
-38 19 -37 36 -34 36 7 0 33 30 64 54 55 11 -4 16 -1 16 13 0 15 -15 24 -70
41 -80 25 -81 25 -96 9z m86 -53 c0 -16 -2 -16 -24 -8 -8 3 -12 12 -10 19 7
17 34 8 34 -11z"/>
<path d="M782 793 c-10 -4 -9 -10 7 -27 17 -19 18 -23 5 -40 -8 -11 -14 -16
-14 -11 0 9 -43 -49 -51 -69 -2 -5 4 -10 13 -12 9 -1 32 17 53 42 30 36 40 42
55 34 26 -14 40 -12 40 5 0 8 -5 15 -10 15 -6 0 -25 16 -43 35 -17 19 -34 35
-37 34 -3 0 -11 -3 -18 -6z"/>
<path d="M1941 783 c-9 -10 -7 -18 14 -38 14 -14 25 -28 25 -30 0 -2 -22 3
-50 10 -33 9 -52 10 -56 3 -7 -11 15 -58 28 -58 4 0 8 -6 8 -12 1 -12 44 -68
53 -68 3 0 7 7 11 15 7 18 -3 47 -14 40 -4 -3 -10 4 -13 15 -4 16 -1 19 16 16
12 -3 23 -5 25 -7 1 -1 6 -2 11 -3 5 0 12 -4 16 -7 9 -10 45 2 45 15 0 6 -24
36 -53 67 -43 45 -56 53 -66 42z"/>
<path d="M918 686 c-10 -7 -18 -18 -18 -24 0 -6 -8 -16 -17 -21 -10 -6 -13
-11 -8 -11 6 0 6 -3 0 -8 -6 -4 -18 -18 -27 -33 -16 -25 -15 -26 21 -49 20
-13 41 -27 46 -31 6 -5 17 -4 24 1 12 7 12 10 0 22 -8 7 -23 18 -34 24 -10 6
-21 16 -23 24 -3 7 0 10 6 6 6 -3 13 -2 17 4 4 6 13 5 25 -2 29 -18 37 -1 11
23 -18 17 -20 23 -10 30 8 4 16 4 19 0 9 -15 45 -21 60 -11 13 8 11 11 -7 16
-13 4 -20 11 -16 17 3 6 1 7 -5 3 -6 -3 -19 2 -29 13 -15 16 -21 17 -35 7z"/>
<path d="M1751 642 c-32 -32 -34 -70 -5 -108 38 -51 133 -24 136 39 2 45 -3
57 -27 73 -41 27 -74 26 -104 -4z m80 -15 c9 -7 18 -24 21 -39 4 -21 0 -29
-19 -37 -35 -16 -50 -14 -67 10 -23 33 -2 70 44 78 3 0 12 -5 21 -12z"/>
<path d="M1042 614 c-7 -8 -13 -17 -13 -21 -1 -5 -6 -19 -12 -33 -5 -14 -11
-29 -13 -35 -2 -5 -6 -20 -10 -32 -5 -19 -2 -23 15 -23 14 0 21 6 21 19 0 11
5 23 12 27 12 8 40 -24 32 -38 -10 -16 6 -47 22 -41 11 4 14 15 11 39 -3 23
-1 34 7 34 7 0 17 10 23 23 12 26 0 67 -19 67 -7 0 -24 6 -38 13 -21 11 -28
11 -38 1z m57 -43 c7 -5 11 -13 7 -19 -8 -14 -46 -3 -46 14 0 16 18 18 39 5z"/>
<path d="M1637 596 c-4 -9 -2 -18 2 -20 8 -6 25 -64 22 -78 0 -5 4 -8 10 -8 5
0 8 -4 5 -9 -8 -12 21 -34 33 -27 6 4 7 15 2 29 -5 12 -10 27 -11 32 -4 17
-10 34 -17 53 -3 9 -7 21 -7 27 -2 16 -33 17 -39 1z"/>
<path d="M1545 580 c-3 -5 -16 -10 -29 -10 -22 0 -46 -17 -46 -33 0 -5 12 -7
27 -5 25 3 28 -1 36 -42 4 -25 9 -52 11 -60 2 -8 9 -15 17 -15 15 0 17 42 5
98 -6 23 -2 29 20 37 22 9 24 13 14 26 -9 10 -16 12 -24 4 -13 -13 -29 -13
-21 0 3 6 4 10 1 10 -3 0 -8 -4 -11 -10z"/>
<path d="M1189 553 c-5 -14 -11 -35 -14 -47 -2 -11 -4 -23 -5 -26 -2 -3 -2 -9
-1 -13 1 -4 -3 -16 -9 -26 -7 -15 -6 -20 6 -25 19 -7 37 2 29 15 -4 5 -2 9 3
9 5 0 8 11 7 25 -5 39 10 29 35 -25 20 -42 26 -48 42 -39 10 5 16 14 13 20 -4
5 -3 9 2 9 7 0 10 101 5 135 -3 15 -27 -15 -28 -35 -3 -36 -4 -40 -13 -40 -5
0 -12 7 -15 16 -3 8 -2 12 4 9 5 -3 2 8 -8 24 -23 41 -41 46 -53 14z"/>
<path d="M1379 555 c-4 -15 -7 -22 -17 -48 -7 -15 -14 -38 -16 -50 -2 -12 -7
-29 -11 -38 -4 -10 0 -19 9 -22 9 -4 17 1 21 12 3 12 14 17 28 16 12 -1 30 -3
40 -4 10 0 15 -5 12 -11 -3 -5 3 -10 15 -10 25 0 23 10 -16 93 -12 28 -21 54
-18 59 3 4 -6 8 -20 8 -14 0 -27 -2 -27 -5z m35 -96 c-10 -17 -32 2 -26 23 5
20 6 20 18 3 7 -10 11 -22 8 -26z"/>
<path d="M2364 459 c-27 -10 -74 -55 -75 -74 -4 -51 -3 -63 9 -88 17 -35 49
-56 92 -61 51 -6 108 34 116 82 3 15 7 28 9 30 5 5 -25 73 -39 87 -23 24 -81
36 -112 24z m102 -54 c30 -38 26 -91 -10 -122 -15 -13 -32 -21 -37 -18 -5 4
-9 1 -9 -5 0 -7 -7 -7 -22 1 -13 7 -25 12 -28 12 -14 -1 -30 11 -30 23 0 8 -4
14 -8 14 -11 0 -13 24 -6 68 3 19 11 32 20 32 8 0 17 6 20 14 10 26 84 13 110
-19z"/>
<path d="M2349 403 c-1 -5 -2 -32 -3 -60 -1 -45 1 -53 17 -53 14 0 17 5 12 20
-9 29 13 25 43 -7 17 -19 27 -24 30 -15 2 7 -3 21 -12 31 -11 12 -13 20 -5 28
15 15 18 47 5 55 -15 10 -86 10 -87 1z m66 -22 c3 -5 1 -13 -5 -16 -15 -9 -43
3 -35 15 8 13 32 13 40 1z"/>
</g>
</svg>
